name C:\Users\u0101727\Documents\MyRepositories\upper-imu-dc\Results\main_tracking\Case_10\FLX01_linearAccelerations_bodyFrame.mot
datacolumns 4
datarows 117
range 0.51000000 1.67000000
endheader 
time	radius_imu_x	radius_imu_y	radius_imu_z	
          0.51000000	         -4.43836384	          9.85873164	          5.59448996	
          0.52000000	         -3.12554464	          9.70160386	          4.27269571	
          0.53000000	         -1.93034755	          9.78257771	          3.26909781	
          0.54000000	         -1.35159286	          9.65863598	          2.79120378	
          0.55000000	         -0.82569391	          9.60742738	          2.59253224	
          0.56000000	         -0.59367785	          9.46760131	          2.77460661	
          0.57000000	         -0.77026711	          9.60859567	          3.20578170	
          0.58000000	         -0.89239872	          9.54439079	          3.60323963	
          0.59000000	         -0.99572935	          9.50536098	          3.84971976	
          0.60000000	         -1.15437338	          9.48892377	          3.97894733	
          0.61000000	         -1.38521764	          9.48980610	          4.04705909	
          0.62000000	         -1.65662390	          9.50900536	          4.09163319	
          0.63000000	         -1.91527831	          9.55189876	          4.12388439	
          0.64000000	         -2.10858577	          9.62132138	          4.13595388	
          0.65000000	         -2.20883422	          9.71361095	          4.11378199	
          0.66000000	         -2.22767947	          9.81797995	          4.04730958	
          0.67000000	         -2.21363414	          9.91967266	          3.93505577	
          0.68000000	         -2.23372124	         10.00448345	          3.78422835	
          0.69000000	         -2.34768712	         10.06289801	          3.60861018	
          0.70000000	         -2.58709137	         10.09220145	          3.42552528	
          0.71000000	         -2.94890102	         10.09626008	          3.25218682	
          0.72000000	         -3.40326592	         10.08370866	          3.10194352	
          0.73000000	         -3.90802579	         10.06558462	          2.98180601	
          0.74000000	         -4.42220798	         10.05314039	          2.89266676	
          0.75000000	         -4.91411768	         10.05598611	          2.83208799	
          0.76000000	         -5.36389682	         10.08063471	          2.79740497	
          0.77000000	         -5.76355387	         10.12953198	          2.78655028	
          0.78000000	         -6.11670308	         10.20031656	          2.79630536	
          0.79000000	         -6.43722264	         10.28512744	          2.82016211	
          0.80000000	         -6.74513885	         10.37102689	          2.84803574	
          0.81000000	         -7.05975696	         10.44328804	          2.86821873	
          0.82000000	         -7.39183022	         10.49136325	          2.87043434	
          0.83000000	         -7.73730560	         10.51440531	          2.84857167	
          0.84000000	         -8.07564128	         10.52301790	          2.80204768	
          0.85000000	         -8.37502405	         10.53651577	          2.73527415	
          0.86000000	         -8.60348383	         10.57723150	          2.65540341	
          0.87000000	         -8.74097984	         10.66397444	          2.56924305	
          0.88000000	         -8.78666807	         10.80645065	          2.48054104	
          0.89000000	         -8.75817306	         11.00242454	          2.38859372	
          0.90000000	         -8.68290677	         11.23997899	          2.28890717	
          0.91000000	         -8.58625165	         11.50349245	          2.17528934	
          0.92000000	         -8.48178625	         11.77957366	          2.04212097	
          0.93000000	         -8.36680310	         12.05881182	          1.88547951	
          0.94000000	         -8.22254911	         12.33397554	          1.70327459	
          0.95000000	         -8.01652488	         12.59898020	          1.49602046	
          0.96000000	         -7.70667590	         12.85026622	          1.26936488	
          0.97000000	         -7.24900970	         13.08701611	          1.03682477	
          0.98000000	         -6.61217162	         13.31332381	          0.82417231	
          0.99000000	         -5.79173946	         13.52122749	          0.65473957	
          1.00000000	         -4.86029834	         13.72143912	          0.59262295	
          1.01000000	         -3.88941691	         13.91617473	          0.65310188	
          1.02000000	         -2.95205313	         14.08366788	          0.82007638	
          1.03000000	         -2.12081763	         14.21614757	          1.07733253	
          1.04000000	         -1.45180254	         14.28582659	          1.39311764	
          1.05000000	         -0.96788065	         14.28234855	          1.72856486	
          1.06000000	         -0.65918280	         14.19614144	          2.05358864	
          1.07000000	         -0.47524404	         14.03972673	          2.35819019	
          1.08000000	         -0.30717830	         13.81106106	          2.61417138	
          1.09000000	         -0.04556935	         13.45676325	          2.78854685	
          1.10000000	          0.36835266	         13.09701228	          2.97901460	
          1.11000000	          1.01767485	         12.71734920	          3.17851742	
          1.12000000	          1.95834269	         12.32466294	          3.39582535	
          1.13000000	          3.20123031	         11.89673789	          3.63118741	
          1.14000000	          4.70410403	         11.40516576	          3.88401913	
          1.15000000	          6.38275850	         10.82332546	          4.15357303	
          1.16000000	          8.12981460	         10.13610016	          4.44064980	
          1.17000000	          9.83602014	          9.34305161	          4.74864249	
          1.18000000	         11.40889241	          8.45822352	          5.08466308	
          1.19000000	         12.78628016	          7.50923639	          5.45969682	
          1.20000000	         13.94351026	          6.53559603	          5.88679670	
          1.21000000	         14.88271544	          5.58580681	          6.37795119	
          1.22000000	         15.63490263	          4.70654529	          6.93681639	
          1.23000000	         16.17045175	          3.77010749	          7.41915748	
          1.24000000	         16.57964823	          3.27492836	          8.30018778	
          1.25000000	         16.46848999	          2.99560582	          9.29501576	
          1.26000000	         15.99176833	          2.64580328	         10.13355169	
          1.27000000	         15.00237638	          2.52775131	         10.88302185	
          1.28000000	         13.45811189	          2.94392761	         11.73604576	
          1.29000000	         11.51230713	          4.23509533	         12.35325456	
          1.30000000	          9.33131764	          5.15259776	         12.35053700	
          1.31000000	          7.17338972	          5.75213767	         11.90211304	
          1.32000000	          5.21601763	          6.02408283	         11.16400991	
          1.33000000	          3.52989290	          6.05886740	         10.28614637	
          1.34000000	          2.11776496	          5.93898135	          9.37578548	
          1.35000000	          0.93802091	          5.72619356	          8.50361648	
          1.36000000	         -0.06491322	          5.45839982	          7.71559733	
          1.37000000	         -0.93776506	          5.15716371	          7.04445263	
          1.38000000	         -1.70195366	          4.83659570	          6.51605155	
          1.39000000	         -2.34566156	          4.51044525	          6.14999937	
          1.40000000	         -2.83157548	          4.19646922	          5.95728532	
          1.41000000	         -3.12256302	          3.91351904	          5.93304230	
          1.42000000	         -3.22605197	          3.68147868	          6.06517761	
          1.43000000	         -3.19752447	          3.46336717	          6.29829035	
          1.44000000	         -3.06204712	          3.29457365	          6.62708997	
          1.45000000	         -3.26612926	          3.20719754	          6.97601766	
          1.46000000	         -3.26839299	          2.84185001	          7.22595356	
          1.47000000	         -3.78873348	          2.69194389	          7.54121449	
          1.48000000	         -4.21074835	          2.61915362	          7.72512402	
          1.49000000	         -4.69491198	          2.47431723	          7.85990427	
          1.50000000	         -5.13604001	          2.32421411	          7.95523464	
          1.51000000	         -5.49299842	          2.16190651	          8.02876806	
          1.52000000	         -5.74276042	          1.98700210	          8.08822113	
          1.53000000	         -5.88738822	          1.80023953	          8.14101153	
          1.54000000	         -5.94037822	          1.60588919	          8.19262793	
          1.55000000	         -5.90670899	          1.41169677	          8.24916058	
          1.56000000	         -5.78014144	          1.22780877	          8.31609638	
          1.57000000	         -5.55943103	          1.06343533	          8.39555149	
          1.58000000	         -5.26198625	          0.92304834	          8.48493950	
          1.59000000	         -4.91966188	          0.80464519	          8.57869664	
          1.60000000	         -4.56664776	          0.70107156	          8.67088320	
          1.61000000	         -4.23847498	          0.60349172	          8.75577548	
          1.62000000	         -3.97551887	          0.50530703	          8.82750139	
          1.63000000	         -3.81148399	          0.40505265	          8.88175495	
          1.64000000	         -3.75187601	          0.30703642	          8.91894662	
          1.65000000	         -3.76364142	          0.21908230	          8.94542355	
          1.66000000	         -3.78764573	          0.14819089	          8.97100675	
          1.67000000	         -3.77093309	          0.09628162	          9.00375499	
